<svg width="30" height="30" viewBox="0 0 30 30" fill="none" xmlns="http://www.w3.org/2000/svg">
<g id="Icon/Fill/trending-up">
<g id="Logo">
<path id="Vector" d="M23.6 0H6.4C2.86538 0 0 2.86538 0 6.4V23.6C0 27.1346 2.86538 30 6.4 30H23.6C27.1346 30 30 27.1346 30 23.6V6.4C30 2.86538 27.1346 0 23.6 0Z" fill="#2D9CDB"/>
<path id="Vector_2" d="M12.3761 14.6508C12.9913 14.6508 13.49 15.1495 13.49 15.7646C13.49 16.3796 12.9913 16.8785 12.3761 16.8785C11.7609 16.8785 11.2622 16.3796 11.2622 15.7646C11.2622 15.1495 11.7609 14.6508 12.3761 14.6508Z" fill="#FAFAFA"/>
<path id="Vector_3" d="M23.2238 15.5453L23.9791 9.5905L18.5612 7.53442L12.0623 10.6386L6.3999 8.24726L7.1645 14.6001L6.4317 20.8559L12.448 21.9844L18.5844 20.8157L23.9999 22.0654L23.2238 15.5453ZM18.5411 8.16522L23.3401 9.9737L23.0098 12.5775L18.2265 11.3676L18.5411 8.16522ZM17.9063 8.49574L17.6531 11.2221L17.6489 11.2211L14.3371 11.6483L14.3173 11.7213C14.3131 11.7371 13.9289 13.1567 13.5239 13.8023C13.2619 13.6482 12.9671 13.545 12.6522 13.5067L12.3837 11.1329L17.9063 8.49574ZM17.3999 14.5769L14.5216 15.0109C14.3665 14.5724 14.0821 14.1957 13.7128 13.9263C14.0896 13.3248 14.4297 12.1604 14.5153 11.853L17.6313 11.4508L17.3999 14.5769ZM11.7983 11.1619L12.0643 13.5125C11.1894 13.633 10.4718 14.2507 10.2088 15.0715L7.75434 14.6916L7.51866 12.4151C8.33218 12.3613 8.94242 12.0965 9.3335 11.6241C9.68606 11.1989 9.78746 10.6959 9.80686 10.3209L11.7983 11.1619ZM7.1085 9.18142L9.58298 10.2263C9.5759 10.5714 9.4979 11.072 9.15986 11.4799C8.80722 11.9052 8.24634 12.143 7.49006 12.1907L7.1085 9.18142ZM7.07654 20.3821L7.6853 15.2728L10.1059 15.6479C10.1041 15.6867 10.1002 15.7251 10.1002 15.7647C10.1002 16.2969 10.285 16.7859 10.5926 17.1741L9.33546 18.1836L8.93934 20.7312L7.07654 20.3821ZM11.819 21.2715L9.16118 20.7729L9.5451 18.3047L10.7415 17.3443C11.1085 17.7237 11.6051 17.9769 12.16 18.0292L11.819 21.2715ZM10.552 15.7647C10.552 14.7585 11.3704 13.9401 12.3761 13.9401C13.3824 13.9401 14.2008 14.7585 14.2008 15.7647C14.2008 16.7705 13.3824 17.5889 12.3761 17.5889C11.3704 17.589 10.552 16.7705 10.552 15.7647ZM12.4472 21.3892L12.3959 21.3795L12.751 18.007C13.8278 17.8273 14.6523 16.8915 14.6523 15.7642C14.6523 15.7032 14.6479 15.6437 14.6432 15.5837L17.4567 15.1595L17.6916 17.5592C16.4573 17.6172 15.5346 17.9967 14.9539 18.6976C14.2767 19.5156 14.2447 20.5355 14.2798 21.0398L12.4472 21.3892ZM14.5052 20.9972C14.4779 20.5186 14.5175 19.5793 15.1281 18.842C15.6683 18.1899 16.5397 17.838 17.7134 17.7847L17.9634 20.338L14.5052 20.9972ZM18.2055 11.5947L22.9817 12.8024L22.6953 15.0587L17.9793 14.4895L18.2055 11.5947ZM22.0457 17.0079L19.8727 16.7495L20.2707 20.6043L18.5297 20.2301L18.0359 15.073L18.0867 15.065L22.6455 15.6437L23.32 21.3083L20.4988 20.6575L20.1263 17.0072L22.0631 17.232L22.0457 17.0079Z" fill="#FAFAFA"/>
</g>
</g>
</svg>
